<?xml version="1.0" encoding="utf-8" standalone="no"?>
<!DOCTYPE svg PUBLIC "-//W3C//DTD SVG 1.1//EN"
  "http://www.w3.org/Graphics/SVG/1.1/DTD/svg11.dtd">
<svg xmlns:xlink="http://www.w3.org/1999/xlink" width="192pt" height="144pt" viewBox="0 0 192 144" xmlns="http://www.w3.org/2000/svg" version="1.1">
 <metadata>
  <rdf:RDF xmlns:dc="http://purl.org/dc/elements/1.1/" xmlns:cc="http://creativecommons.org/ns#" xmlns:rdf="http://www.w3.org/1999/02/22-rdf-syntax-ns#">
   <cc:Work>
    <dc:type rdf:resource="http://purl.org/dc/dcmitype/StillImage"/>
    <dc:date>2025-06-17T19:51:08.272856</dc:date>
    <dc:format>image/svg+xml</dc:format>
    <dc:creator>
     <cc:Agent>
      <dc:title>Matplotlib v3.10.3, https://matplotlib.org/</dc:title>
     </cc:Agent>
    </dc:creator>
   </cc:Work>
  </rdf:RDF>
 </metadata>
 <defs>
  <style type="text/css">*{stroke-linejoin: round; stroke-linecap: butt}</style>
 </defs>
 <g id="figure_1">
  <g id="axes_1">
   <g id="patch_1">
    <path d="M 13.714286 10.285714 
L 54.857143 10.285714 
L 54.857143 51.428571 
L 13.714286 51.428571 
L 13.714286 10.285714 
z
" clip-path="url(#pa6ffb6a1a6)" style="fill: none; stroke: #000000; stroke-linejoin: miter"/>
   </g>
   <g id="patch_2">
    <path d="M 13.714286 51.428571 
L 54.857143 51.428571 
L 54.857143 92.571429 
L 13.714286 92.571429 
L 13.714286 51.428571 
z
" clip-path="url(#pa6ffb6a1a6)" style="fill: none; stroke: #000000; stroke-linejoin: miter"/>
   </g>
   <g id="patch_3">
    <path d="M 13.714286 92.571429 
L 54.857143 92.571429 
L 54.857143 133.714286 
L 13.714286 133.714286 
L 13.714286 92.571429 
z
" clip-path="url(#pa6ffb6a1a6)" style="fill: none; stroke: #000000; stroke-linejoin: miter"/>
   </g>
   <g id="patch_4">
    <path d="M 54.857143 10.285714 
L 96 10.285714 
L 96 51.428571 
L 54.857143 51.428571 
L 54.857143 10.285714 
z
" clip-path="url(#pa6ffb6a1a6)" style="fill: none; stroke: #000000; stroke-linejoin: miter"/>
   </g>
   <g id="patch_5">
    <path d="M 54.857143 51.428571 
L 96 51.428571 
L 96 92.571429 
L 54.857143 92.571429 
z
" clip-path="url(#pa6ffb6a1a6)" style="fill: #808080; stroke: #000000; stroke-linejoin: miter"/>
   </g>
   <g id="patch_6">
    <path d="M 54.857143 92.571429 
L 96 92.571429 
L 96 133.714286 
L 54.857143 133.714286 
L 54.857143 92.571429 
z
" clip-path="url(#pa6ffb6a1a6)" style="fill: none; stroke: #000000; stroke-linejoin: miter"/>
   </g>
   <g id="patch_7">
    <path d="M 96 10.285714 
L 137.142857 10.285714 
L 137.142857 51.428571 
L 96 51.428571 
L 96 10.285714 
z
" clip-path="url(#pa6ffb6a1a6)" style="fill: none; stroke: #000000; stroke-linejoin: miter"/>
   </g>
   <g id="patch_8">
    <path d="M 96 51.428571 
L 137.142857 51.428571 
L 137.142857 92.571429 
L 96 92.571429 
z
" clip-path="url(#pa6ffb6a1a6)" style="fill: #808080; stroke: #000000; stroke-linejoin: miter"/>
   </g>
   <g id="patch_9">
    <path d="M 96 92.571429 
L 137.142857 92.571429 
L 137.142857 133.714286 
L 96 133.714286 
L 96 92.571429 
z
" clip-path="url(#pa6ffb6a1a6)" style="fill: none; stroke: #000000; stroke-linejoin: miter"/>
   </g>
   <g id="patch_10">
    <path d="M 137.142857 10.285714 
L 178.285714 10.285714 
L 178.285714 51.428571 
L 137.142857 51.428571 
L 137.142857 10.285714 
z
" clip-path="url(#pa6ffb6a1a6)" style="fill: none; stroke: #000000; stroke-linejoin: miter"/>
   </g>
   <g id="patch_11">
    <path d="M 137.142857 51.428571 
L 178.285714 51.428571 
L 178.285714 92.571429 
L 137.142857 92.571429 
L 137.142857 51.428571 
z
" clip-path="url(#pa6ffb6a1a6)" style="fill: none; stroke: #000000; stroke-linejoin: miter"/>
   </g>
   <g id="patch_12">
    <path d="M 137.142857 92.571429 
L 178.285714 92.571429 
L 178.285714 133.714286 
L 137.142857 133.714286 
L 137.142857 92.571429 
z
" clip-path="url(#pa6ffb6a1a6)" style="fill: none; stroke: #000000; stroke-linejoin: miter"/>
   </g>
  </g>
 </g>
 <defs>
  <clipPath id="pa6ffb6a1a6">
   <rect x="3.428571" y="0" width="185.142857" height="144"/>
  </clipPath>
 </defs>
</svg>
